<svg version="1.1" id="Layer_1" xmlns="http://www.w3.org/2000/svg" xmlns:xlink="http://www.w3.org/1999/xlink" x="0px" y="0px"
	 width="100%" viewBox="0 0 1024 1024" enable-background="new 0 0 1024 1024" xml:space="preserve">
<path fill="#222629" opacity="1.000000" stroke="none" 
	d="
M644.000000,1025.000000 
	C429.333344,1025.000000 215.166672,1025.000000 1.000000,1025.000000 
	C1.000000,683.666687 1.000000,342.333344 1.000000,1.000000 
	C342.333344,1.000000 683.666687,1.000000 1025.000000,1.000000 
	C1025.000000,342.333344 1025.000000,683.666687 1025.000000,1025.000000 
	C898.166687,1025.000000 771.333313,1025.000000 644.000000,1025.000000 
M280.458893,162.095978 
	C280.001007,162.509430 279.543091,162.922897 278.795532,163.890518 
	C277.520264,165.263199 276.244995,166.635895 274.274384,168.383621 
	C273.856079,170.756897 273.072479,173.130035 273.071625,175.503448 
	C273.013214,335.887634 273.017487,496.271820 273.017120,656.656006 
	C273.016968,719.610535 273.002930,782.565125 273.097534,845.519531 
	C273.100281,847.340027 274.261505,849.158752 275.174316,851.610657 
	C277.792084,853.793030 280.409821,855.975403 283.218353,858.928650 
	C285.081787,859.278259 286.944489,859.928223 288.808716,859.932556 
	C317.620941,859.998840 346.433319,859.983032 375.245667,859.982910 
	C493.659393,859.982361 612.073120,859.989258 730.486816,859.916748 
	C732.807373,859.915344 735.127441,858.976318 737.869202,858.011414 
	C742.499512,857.261719 744.986877,854.307739 746.911865,849.800476 
	C747.262756,848.604858 747.918640,847.409729 747.920288,846.213623 
	C747.974915,805.816345 747.984497,765.418884 747.892395,725.021790 
	C747.889343,723.689026 746.761414,722.358948 745.933655,720.346313 
	C744.281006,718.186401 742.628296,716.026550 740.763428,713.099976 
	C738.907898,712.734924 737.052612,712.051392 735.196899,712.050476 
	C630.221924,711.999512 525.246948,712.001160 420.271973,712.042114 
	C418.525055,712.042786 416.778320,712.589478 414.321625,713.055237 
	C413.208954,712.673035 412.096283,712.290833 411.041138,711.212219 
	C411.020416,710.513977 410.999695,709.815674 410.992035,708.157043 
	C410.994690,530.340027 411.000366,352.522949 410.959595,174.705933 
	C410.959167,172.805099 410.349731,170.904419 409.187531,169.072525 
	C408.907928,169.086548 408.628326,169.100555 407.996674,168.528076 
	C406.320831,166.625443 404.644989,164.722794 402.828827,162.174164 
	C401.562531,162.078293 400.296204,161.982422 398.103027,162.060196 
	C387.469055,162.064835 376.835083,162.089905 366.201141,162.070084 
	C338.790741,162.019028 311.380310,161.948120 283.592224,161.386856 
	C282.739014,161.638184 281.885803,161.889511 281.033691,162.045700 
	C281.033691,162.045700 281.127136,162.063599 280.458893,162.095978 
z"/>
<path fill="#FFFFFF" opacity="1.000000" stroke="none" 
	d="
M746.134766,849.975891 
	C744.986877,854.307739 742.499512,857.261719 737.203308,858.058533 
	C648.798035,858.097534 561.058716,858.077698 473.319336,858.085144 
	C409.888733,858.090576 346.458160,858.132324 283.027557,858.157837 
	C280.409821,855.975403 277.792084,853.793030 275.058899,850.827881 
	C274.900116,848.047668 274.818878,846.050171 274.818817,844.052673 
	C274.815063,665.337341 274.807495,486.622040 274.826355,307.906708 
	C274.831268,261.274017 274.919678,214.641296 274.969727,168.008591 
	C276.244995,166.635895 277.520264,165.263199 279.239929,163.510101 
	C280.165253,162.774307 280.646179,162.418961 281.127136,162.063599 
	C281.127136,162.063599 281.033691,162.045700 281.398560,162.035736 
	C282.498932,161.978897 283.234406,161.932022 283.969910,161.885132 
	C311.380310,161.948120 338.790741,162.019028 366.201141,162.070084 
	C376.835083,162.089905 387.469055,162.064835 398.917755,162.033096 
	C400.811371,162.277390 401.890259,162.548782 402.969147,162.820160 
	C404.644989,164.722794 406.320831,166.625443 408.236328,169.279648 
	C408.546997,171.692795 408.680084,173.354355 408.680145,175.015930 
	C408.685120,314.348114 408.677826,453.680328 408.676422,593.012512 
	C408.676056,630.178894 408.648102,667.345398 408.797699,704.511230 
	C408.807648,706.979858 410.222351,709.442932 410.983643,711.908569 
	C412.096283,712.290833 413.208954,712.673035 415.139954,713.026733 
	C521.393311,713.000793 626.828308,712.996460 732.263306,713.041809 
	C735.167542,713.043091 738.071533,713.579651 740.975647,713.866577 
	C742.628296,716.026550 744.281006,718.186401 745.999451,721.151794 
	C746.088379,764.630127 746.111572,807.303040 746.134766,849.975891 
z"/>
<path fill="#000207" opacity="1.000000" stroke="none" 
	d="
M274.622070,168.196106 
	C274.919678,214.641296 274.831268,261.274017 274.826355,307.906708 
	C274.807495,486.622040 274.815063,665.337341 274.818817,844.052673 
	C274.818878,846.050171 274.900116,848.047668 274.913025,850.511719 
	C274.261505,849.158752 273.100281,847.340027 273.097534,845.519531 
	C273.002930,782.565125 273.016968,719.610535 273.017120,656.656006 
	C273.017487,496.271820 273.013214,335.887634 273.071625,175.503448 
	C273.072479,173.130035 273.856079,170.756897 274.622070,168.196106 
z"/>
<path fill="#000207" opacity="1.000000" stroke="none" 
	d="
M283.122955,858.543213 
	C346.458160,858.132324 409.888733,858.090576 473.319336,858.085144 
	C561.058716,858.077698 648.798035,858.097534 736.992554,858.290222 
	C735.127441,858.976318 732.807373,859.915344 730.486816,859.916748 
	C612.073120,859.989258 493.659393,859.982361 375.245667,859.982910 
	C346.433319,859.983032 317.620941,859.998840 288.808716,859.932556 
	C286.944489,859.928223 285.081787,859.278259 283.122955,858.543213 
z"/>
<path fill="#000207" opacity="1.000000" stroke="none" 
	d="
M411.012390,711.560425 
	C410.222351,709.442932 408.807648,706.979858 408.797699,704.511230 
	C408.648102,667.345398 408.676056,630.178894 408.676422,593.012512 
	C408.677826,453.680328 408.685120,314.348114 408.680145,175.015930 
	C408.680084,173.354355 408.546997,171.692795 408.412354,169.572906 
	C408.628326,169.100555 408.907928,169.086548 409.599731,169.506226 
	C410.010956,347.595001 410.006622,525.250061 410.049194,702.905090 
	C410.049683,704.975952 410.655640,707.046631 410.978973,709.117432 
	C410.999695,709.815674 411.020416,710.513977 411.012390,711.560425 
z"/>
<path fill="#2F3338" opacity="1.000000" stroke="none" 
	d="
M410.985504,708.637207 
	C410.655640,707.046631 410.049683,704.975952 410.049194,702.905090 
	C410.006622,525.250061 410.010956,347.595001 410.018280,169.471802 
	C410.349731,170.904419 410.959167,172.805099 410.959595,174.705933 
	C411.000366,352.522949 410.994690,530.340027 410.985504,708.637207 
z"/>
<path fill="#000207" opacity="1.000000" stroke="none" 
	d="
M740.869507,713.483276 
	C738.071533,713.579651 735.167542,713.043091 732.263306,713.041809 
	C626.828308,712.996460 521.393311,713.000793 415.494904,712.939819 
	C416.778320,712.589478 418.525055,712.042786 420.271973,712.042114 
	C525.246948,712.001160 630.221924,711.999512 735.196899,712.050476 
	C737.052612,712.051392 738.907898,712.734924 740.869507,713.483276 
z"/>
<path fill="#000207" opacity="1.000000" stroke="none" 
	d="
M746.523315,849.888184 
	C746.111572,807.303040 746.088379,764.630127 746.111572,721.492432 
	C746.761414,722.358948 747.889343,723.689026 747.892395,725.021790 
	C747.984497,765.418884 747.974915,805.816345 747.920288,846.213623 
	C747.918640,847.409729 747.262756,848.604858 746.523315,849.888184 
z"/>
<path fill="#000207" opacity="1.000000" stroke="none" 
	d="
M402.898987,162.497162 
	C401.890259,162.548782 400.811371,162.277390 399.381195,161.946274 
	C400.296204,161.982422 401.562531,162.078293 402.898987,162.497162 
z"/>
<path fill="#000207" opacity="1.000000" stroke="none" 
	d="
M283.781067,161.636002 
	C283.234406,161.932022 282.498932,161.978897 281.398010,162.083313 
	C281.885803,161.889511 282.739014,161.638184 283.781067,161.636002 
z"/>
<path fill="#000207" opacity="1.000000" stroke="none" 
	d="
M280.793030,162.079788 
	C280.646179,162.418961 280.165253,162.774307 279.384735,163.233017 
	C279.543091,162.922897 280.001007,162.509430 280.793030,162.079788 
z"/>
</svg>